<svg width="16" height="16" viewBox="0 0 16 16" fill="none" xmlns="http://www.w3.org/2000/svg">
<rect width="16" height="16" rx="8" fill="white"/>
<path fill-rule="evenodd" clip-rule="evenodd" d="M5.64401 2.05741C5.78146 2.1115 5.90555 2.20058 6.01818 2.31831C6.2059 2.51303 6.36435 2.79175 6.48526 3.12201C6.6068 3.45418 6.68571 3.82199 6.71561 4.19107C7.11626 3.9644 7.5609 3.82639 8.01948 3.78635L8.05194 3.78381C8.60555 3.73926 9.15281 3.83917 9.63007 4.08543C9.69434 4.11916 9.75733 4.15543 9.81906 4.19361C9.85088 3.83153 9.92851 3.472 10.0481 3.14746C10.169 2.81656 10.3275 2.53848 10.5146 2.34312C10.6191 2.23002 10.747 2.141 10.8894 2.08222C11.0529 2.01859 11.2267 2.00714 11.3959 2.0555C11.6511 2.12804 11.87 2.28967 12.0424 2.52448C12.2003 2.73893 12.3186 3.01383 12.3994 3.34346C12.5458 3.9378 12.5712 4.71987 12.4726 5.66293L12.5063 5.68838L12.5229 5.70047C13.0046 6.06701 13.3399 6.58944 13.5175 7.19588C13.7943 8.14212 13.6549 9.20354 13.1777 9.79725L13.1662 9.81061L13.1675 9.81252C13.4329 10.2974 13.5938 10.8097 13.6282 11.3397L13.6295 11.3588C13.6702 12.0365 13.5022 12.7187 13.1115 13.3888L13.107 13.3951L13.1134 13.4104C13.4138 14.1467 13.5079 14.888 13.3921 15.6287L13.3883 15.6535C13.3704 15.7617 13.3102 15.8584 13.2211 15.9223C13.132 15.9863 13.0212 16.0122 12.913 15.9946C12.8594 15.9862 12.8079 15.9674 12.7616 15.9391C12.7153 15.9108 12.6751 15.8737 12.6432 15.8298C12.6112 15.786 12.5883 15.7362 12.5756 15.6835C12.563 15.6307 12.5608 15.576 12.5693 15.5224C12.6756 14.8651 12.5757 14.2058 12.2639 13.5351C12.2348 13.4728 12.2219 13.4042 12.2263 13.3356C12.2308 13.2669 12.2525 13.2005 12.2893 13.1425L12.2919 13.1387C12.6762 12.5507 12.8353 11.9742 12.801 11.4078C12.7717 10.9121 12.5942 10.4253 12.2919 9.96143C12.2331 9.87124 12.2122 9.76155 12.2336 9.65605C12.255 9.55055 12.3171 9.45772 12.4064 9.39763L12.4122 9.39381C12.5668 9.29263 12.7093 9.03427 12.7812 8.6811C12.8606 8.26349 12.8399 7.83303 12.7208 7.42496C12.5903 6.97952 12.3517 6.6079 12.0176 6.354C11.639 6.0651 11.1376 5.92574 10.5031 5.96583C10.4202 5.97122 10.3375 5.95161 10.2658 5.90952C10.1941 5.86744 10.1367 5.80481 10.101 5.72974C9.90115 5.30658 9.6097 5.00368 9.24635 4.81596C8.89751 4.64185 8.50696 4.56868 8.11875 4.60469C7.3265 4.66769 6.6278 5.1144 6.41971 5.67756C6.39028 5.75682 6.33733 5.8252 6.26795 5.87353C6.19858 5.92187 6.1161 5.94785 6.03155 5.94801C5.35257 5.94928 4.82695 6.10837 4.4426 6.39536C4.11042 6.64353 3.88389 6.99034 3.76425 7.40587C3.656 7.797 3.64118 8.2081 3.72098 8.60602C3.79225 8.9611 3.93161 9.25509 4.09133 9.41354L4.09643 9.41799C4.23133 9.54971 4.25997 9.75525 4.16579 9.91752C3.9367 10.3133 3.76553 10.9032 3.73753 11.4702C3.70571 12.118 3.85589 12.6805 4.19506 13.084L4.20524 13.0961C4.25642 13.1557 4.28935 13.2288 4.30007 13.3067C4.31079 13.3846 4.29885 13.4639 4.26569 13.5351C3.89916 14.3217 3.78653 14.9682 3.90807 15.4773C3.92991 15.5831 3.90959 15.6933 3.85141 15.7844C3.79324 15.8755 3.70181 15.9403 3.59659 15.965C3.49136 15.9897 3.38064 15.9724 3.288 15.9167C3.19536 15.861 3.1281 15.7714 3.10055 15.6669C2.94592 15.0191 3.05091 14.2771 3.40154 13.441L3.41045 13.4187L3.40536 13.411C3.23303 13.1565 3.10442 12.875 3.02482 12.5781L3.02164 12.566C2.92505 12.1956 2.88705 11.8123 2.90901 11.4301C2.93701 10.851 3.08591 10.258 3.30481 9.78198L3.31245 9.76543L3.31118 9.76416C3.12473 9.49817 2.98664 9.15773 2.91028 8.78101L2.9071 8.76574C2.80189 8.24027 2.82217 7.6974 2.96628 7.18124C3.133 6.59899 3.46072 6.09882 3.9437 5.73738C3.98188 5.70874 4.02197 5.68011 4.06206 5.65338C3.96088 4.70332 3.98634 3.91617 4.13333 3.318C4.21415 2.98838 4.33314 2.71348 4.49096 2.49903C4.66277 2.26485 4.88167 2.10322 5.13685 2.03004C5.30611 1.98168 5.48047 1.9925 5.64401 2.05677V2.05741ZM8.2632 7.84177C8.85882 7.84177 9.40862 8.04094 9.8197 8.38584C10.2206 8.72119 10.4592 9.17173 10.4592 9.62035C10.4592 10.1854 10.2009 10.6258 9.73824 10.907C9.34371 11.1457 8.81491 11.2615 8.20911 11.2615C7.56704 11.2615 7.01851 11.0967 6.62271 10.7944C6.23008 10.4953 6.00991 10.0753 6.00991 9.62035C6.00991 9.17045 6.26317 8.71865 6.68189 8.38202C7.10697 8.04031 7.66822 7.84177 8.2632 7.84177ZM8.2632 8.41193C7.82173 8.40808 7.39197 8.55387 7.04397 8.82555C6.75061 9.061 6.58453 9.3569 6.58453 9.62098C6.58453 9.89334 6.71816 10.1485 6.9727 10.3426C7.26223 10.5634 7.68795 10.6913 8.20911 10.6913C8.71755 10.6913 9.14645 10.5978 9.43853 10.4202C9.73315 10.2421 9.88397 9.9837 9.88397 9.62035C9.88397 9.35117 9.72743 9.054 9.44935 8.8211C9.14136 8.56338 8.72391 8.41193 8.2632 8.41193ZM8.68446 9.18191L8.68701 9.18445C8.76337 9.28054 8.74746 9.4199 8.65137 9.49626L8.46556 9.64262V9.92643C8.46522 9.98961 8.43984 10.0501 8.39499 10.0946C8.35014 10.1391 8.28947 10.164 8.22629 10.1638C8.16311 10.164 8.10245 10.1391 8.05759 10.0946C8.01274 10.0501 7.98736 9.98961 7.98703 9.92643V9.63371L7.81458 9.49499C7.79183 9.47676 7.77292 9.45421 7.75893 9.42863C7.74494 9.40306 7.73616 9.37496 7.73308 9.34598C7.73 9.31699 7.7327 9.28768 7.74101 9.25974C7.74931 9.2318 7.76307 9.20578 7.78149 9.18318C7.81905 9.13746 7.87313 9.1084 7.93199 9.10232C7.99085 9.09625 8.04973 9.11364 8.09584 9.15073L8.23266 9.26018L8.37265 9.14945C8.4186 9.11315 8.47691 9.09623 8.53515 9.10229C8.5934 9.10836 8.64697 9.13692 8.68446 9.18191ZM5.47729 7.96076C5.78146 7.96076 6.029 8.20894 6.029 8.51502C6.02917 8.66174 5.97109 8.80252 5.86752 8.90645C5.76396 9.01037 5.62337 9.06894 5.47665 9.06927C5.33016 9.06877 5.18983 9.01022 5.08642 8.90645C4.98301 8.80268 4.92494 8.66215 4.92494 8.51566C4.92461 8.36894 4.98252 8.22808 5.08597 8.12404C5.18942 8.01999 5.33057 7.96127 5.47729 7.96076ZM11.0173 7.96076C11.3227 7.96076 11.5696 8.20894 11.5696 8.51502C11.5698 8.66174 11.5117 8.80252 11.4082 8.90645C11.3046 9.01037 11.164 9.06894 11.0173 9.06927C10.8708 9.06877 10.7305 9.01022 10.6271 8.90645C10.5237 8.80268 10.4656 8.66215 10.4656 8.51566C10.4652 8.36894 10.5232 8.22808 10.6266 8.12404C10.7301 8.01999 10.8706 7.96127 11.0173 7.96076ZM5.34811 2.82738L5.3462 2.82865C5.27248 2.86071 5.20953 2.91328 5.16485 2.9801L5.16166 2.98392C5.07385 3.10419 4.99749 3.2811 4.94022 3.51336C4.83204 3.95371 4.80277 4.55124 4.86131 5.28367C5.13494 5.20222 5.43338 5.15131 5.75474 5.13285L5.7611 5.13222L5.77319 5.11058C5.80246 5.0584 5.83364 5.00813 5.86737 4.9585C5.94564 4.46788 5.88137 3.8818 5.70637 3.40327C5.6211 3.17164 5.51738 2.98965 5.41811 2.88593C5.39762 2.86436 5.37478 2.84515 5.35002 2.82865L5.34811 2.82738ZM11.1859 2.85284L11.1847 2.85347C11.1599 2.86997 11.1371 2.88918 11.1166 2.91074C11.0173 3.01447 10.9129 3.1971 10.8283 3.42873C10.6438 3.93398 10.582 4.55887 10.6819 5.0654L10.7188 5.12713L10.7239 5.13604H10.743C11.0588 5.13612 11.373 5.18155 11.6759 5.27094C11.7306 4.55569 11.7001 3.97089 11.5945 3.53881C11.5372 3.30655 11.4608 3.12965 11.3724 3.00938L11.3698 3.00556C11.3252 2.9385 11.2623 2.8857 11.1885 2.85347H11.1859V2.85284Z" fill="black"/>
</svg>
