<svg width="646" height="854" viewBox="0 0 646 854" fill="none" xmlns="http://www.w3.org/2000/svg">
<path d="M140.629 224.007C137.598 210.885 136.518 197.379 136.518 183.923C136.518 156.926 141.968 130.923 154.646 106.926C161.146 94.9219 168.973 84.918 178.629 76.918C188.269 68.918 199.973 63.918 213.629 63.918C238.973 63.918 258.269 76.918 271.629 99.918C284.973 122.918 291.629 152.926 291.629 189.923C291.629 203.379 290.549 216.885 287.518 230.007C302.518 224.885 318.269 222.379 334.629 222.379C350.973 222.379 366.708 224.885 381.708 230.007C378.677 216.885 377.598 203.379 377.598 189.923C377.598 152.926 384.254 122.918 397.598 99.918C410.958 76.918 430.254 63.918 455.598 63.918C469.254 63.918 480.958 68.918 490.598 76.918C500.254 84.918 508.081 94.9219 514.581 106.926C527.259 130.923 532.708 156.926 532.708 183.923C532.708 197.379 531.629 210.885 528.598 224.007C566.708 250.879 589.629 293.923 589.629 340.923C589.629 358.379 586.598 375.379 580.598 391.379C607.598 419.923 623.629 456.923 623.629 496.923C623.629 526.879 614.629 554.879 598.629 578.379C614.629 601.879 623.629 629.879 623.629 659.879C623.629 741.879 556.629 808.879 474.629 808.879H172.629C90.629 808.879 23.629 741.879 23.629 659.879C23.629 629.879 32.629 601.879 48.629 578.379C32.629 554.879 23.629 526.879 23.629 496.923C23.629 456.923 39.66 419.923 66.66 391.379C60.66 375.379 57.629 358.379 57.629 340.923C57.629 293.923 80.55 250.879 140.629 224.007Z" fill="#0A0A0A"/>
<ellipse cx="242.629" cy="512.879" rx="40" ry="52" fill="white"/>
<ellipse cx="404.629" cy="512.879" rx="40" ry="52" fill="white"/>
<ellipse cx="242.629" cy="524.879" rx="18" ry="24" fill="#0A0A0A"/>
<ellipse cx="404.629" cy="524.879" rx="18" ry="24" fill="#0A0A0A"/>
<path d="M283.629 604.879C283.629 592.833 293.583 583.879 305.629 583.879H341.629C353.675 583.879 363.629 592.833 363.629 604.879C363.629 632.493 341.243 654.879 313.629 654.879C286.015 654.879 283.629 632.493 283.629 604.879Z" fill="white"/>
</svg>
